<?xml version="1.0" standalone="no"?>
<!DOCTYPE svg PUBLIC "-//W3C//DTD SVG 20010904//EN"
    "http://www.w3.org/TR/2001/REC-SVG-20010904/DTD/svg10.dtd">
<svg version="1.0" xmlns="http://www.w3.org/2000/svg"
     width="512.000000pt" height="512.000000pt" viewBox="0 0 512.000000 512.000000"
     preserveAspectRatio="xMidYMid meet">

    <g transform="translate(0.000000,512.000000) scale(0.100000,-0.100000)"
       fill="#000000" stroke="none">
        <path d="M1300 5114 c-14 -2 -59 -9 -100 -15 -511 -76 -980 -486 -1134 -991
-65 -210 -60 -42 -63 -2171 l-3 -1937 1937 3 1938 3 97 22 c290 67 519 192
724 396 204 205 329 434 396 724 l22 97 3 1938 3 1937 -1897 -1 c-1044 -1
-1909 -3 -1923 -5z m2170 -317 c0 -2 -13 -30 -29 -63 -68 -143 -94 -259 -94
-424 0 -169 26 -284 99 -432 46 -94 87 -151 168 -237 83 -86 166 -147 262
-194 150 -74 265 -100 434 -100 165 0 281 26 424 94 33 16 61 29 63 29 2 0 3
-476 3 -1057 0 -901 -2 -1072 -15 -1152 -78 -478 -457 -854 -932 -926 -82 -12
-276 -15 -1150 -15 -579 0 -1053 1 -1053 3 0 2 13 30 29 63 68 143 94 259 94
424 0 169 -26 284 -99 432 -46 94 -87 151 -168 237 -83 86 -166 147 -262 194
-150 74 -265 100 -434 100 -165 0 -281 -26 -424 -94 -33 -16 -61 -29 -63 -29
-8 0 -2 2112 7 2175 39 269 177 529 373 697 166 143 369 236 582 267 54 8
2185 15 2185 8z"/>
        <path d="M2350 4533 c-558 -39 -871 -155 -1178 -437 -179 -164 -340 -441 -416
-713 -74 -265 -87 -400 -93 -906 -3 -240 -3 -443 0 -450 3 -9 42 -11 160 -7
l156 5 5 435 c4 437 8 504 47 700 55 275 181 524 348 689 301 296 685 391
1479 365 239 -8 273 -7 276 6 3 8 6 80 8 160 l3 145 -160 6 c-166 7 -556 8
-635 2z"/>
        <path d="M2477 3790 c-143 -24 -279 -85 -405 -180 -72 -54 -193 -174 -191
-189 0 -3 28 -26 62 -50 34 -25 92 -67 129 -94 l68 -49 62 57 c145 134 303
196 463 180 184 -18 295 -113 295 -254 0 -112 -47 -172 -277 -354 -134 -107
-188 -164 -238 -249 -62 -105 -84 -206 -85 -385 l0 -93 194 0 194 0 4 118 c4
106 7 124 36 186 38 82 100 145 265 269 64 49 140 114 169 146 98 105 147 234
148 381 1 271 -216 494 -538 556 -79 15 -275 17 -355 4z"/>
        <path d="M4293 3100 l-152 -5 -5 -435 c-4 -437 -8 -504 -47 -700 -55 -275
-181 -524 -348 -689 -301 -296 -685 -391 -1479 -365 -239 8 -273 7 -276 -6 -3
-8 -6 -80 -8 -160 l-3 -145 200 -8 c401 -16 780 3 1015 52 359 75 650 243 864
501 175 210 290 460 350 765 42 212 48 293 53 743 3 244 1 447 -3 450 -5 4
-77 5 -161 2z"/>
        <path d="M2511 1839 c-127 -24 -214 -132 -215 -264 -1 -159 113 -275 269 -275
158 0 275 119 275 279 0 165 -162 292 -329 260z"/>
    </g>
</svg>
